# xmcd
#
# Track frame offsets:
#	150
#	11746
#	23506
#	35784
#	48647
#	56840
#	68735
#	80780
#	98076
#	112103
#	124010
#	135405
#	148960
#	164928
#	176623
#	189559
#	201735
#	214547
#	228760
#	238541
#	251848
#	261809
#	274458
#	290043
#	301997
#
# Disc length: 4144 seconds
#
# Revision: 0
# Processed by: cddbd v1.5.2PL0 Copyright (c) Steve Scherf et al.
# Submitted via: dBpowerAMP V4.0
#
DISCID=8b102e19
DTITLE=Various Artist - Country Classics 50 2
DYEAR=2002
DGENRE=Country
TTITLE0=Before The Next Teardrop Falls
TTITLE1=I Can,t Stop Loving U
TTITLE2=Satin Sheets
TTITLE3=The Most Bueatiful Girl
TTITLE4=Blue Blue Day
TTITLE5=End Of The World
TTITLE6=There Goes My Everything
TTITLE7=One Day At A Time
TTITLE8=Teddy Bear Song
TTITLE9=Dark Moon
TTITLE10=Superman
TTITLE11=Almost Persuaded
TTITLE12=Lookin For Love
TTITLE13=Do What U Do Well
TTITLE14=Its Four In The Morning
TTITLE15=Take This Job And Shove It
TTITLE16=Wolverton Mountain
TTITLE17=I,m So Lomesome I could Cry
TTITLE18=Cowboy Boots
TTITLE19=Dream Baby
TTITLE20=Please Help Me I,m Falling
TTITLE21=The Carroll County Accident
TTITLE22=I,m A Truck
TTITLE23=Girl On The Billboard
TTITLE24=Lets Think About living
EXTD=
EXTT0=
EXTT1=
EXTT2=
EXTT3=
EXTT4=
EXTT5=
EXTT6=
EXTT7=
EXTT8=
EXTT9=
EXTT10=
EXTT11=
EXTT12=
EXTT13=
EXTT14=
EXTT15=
EXTT16=
EXTT17=
EXTT18=
EXTT19=
EXTT20=
EXTT21=
EXTT22=
EXTT23=
EXTT24=
PLAYORDER=
